<svg xmlns="http://www.w3.org/2000/svg" viewBox="0 0 1200 630" width="1200" height="630" role="img" aria-label="Nimanto — evidence first, applications second">
  <defs>
    <radialGradient id="umber" cx="26%" cy="46%" r="64%">
      <stop offset="0" stop-color="#241C14"/>
      <stop offset="1" stop-color="#0A0908"/>
    </radialGradient>
    <radialGradient id="light" cx="50%" cy="50%" r="50%">
      <stop offset="0" stop-color="#E8785F"/>
      <stop offset=".45" stop-color="#D6472C"/>
      <stop offset="1" stop-color="#D6472C" stop-opacity="0"/>
    </radialGradient>
  </defs>

  <rect width="1200" height="630" fill="#0A0908"/>
  <rect width="1200" height="630" fill="url(#umber)"/>

  <g transform="translate(78 118) scale(4.6)" stroke-linejoin="round">
    <circle cx="32" cy="50" r="10" fill="url(#light)"/>
    <g transform="translate(33.63 47.48) rotate(33)">
      <path d="M0 -36.00 Q9.80 -25.20 6.60 -10.80 Q4.00 -1.98 0 0 Q-4.00 -1.98 -6.60 -10.80 Q-9.80 -25.20 0 -36.00 Z" fill="#101013" stroke="#B8935A" stroke-width=".5"/>
      <path d="M0 0 L0 -36.00" stroke="#9D7C4A" stroke-width=".4" fill="none"/>
    </g>
    <g transform="translate(30.64 47.33) rotate(-27)">
      <path d="M0 -34.50 Q9.31 -24.15 6.27 -10.35 Q3.80 -1.90 0 0 Q-3.80 -1.90 -6.27 -10.35 Q-9.31 -24.15 0 -34.50 Z" fill="#101013" stroke="#B8935A" stroke-width=".5"/>
      <path d="M0 0 L0 -34.50" stroke="#9D7C4A" stroke-width=".4" fill="none"/>
    </g>
    <g transform="translate(32.16 47.00) rotate(3)">
      <path d="M0 -41.50 Q11.03 -29.05 7.43 -12.45 Q4.50 -2.28 0 0 Q-4.50 -2.28 -7.43 -12.45 Q-11.03 -29.05 0 -41.50 Z" fill="#161613" stroke="#B8935A" stroke-width=".5"/>
      <path d="M0 0 L0 -41.50" stroke="#9D7C4A" stroke-width=".4" fill="none"/>
    </g>
    <g transform="translate(34.70 48.68) rotate(64)">
      <path d="M0 -27.50 Q8.08 -19.25 5.45 -8.25 Q3.30 -1.51 0 0 Q-3.30 -1.51 -5.45 -8.25 Q-8.08 -19.25 0 -27.50 Z" fill="#D5CCB9" stroke="#B8935A" stroke-width=".5"/>
      <path d="M0 0 L0 -27.50" stroke="#9D7C4A" stroke-width=".4" fill="none"/>
    </g>
    <g transform="translate(29.51 48.32) rotate(-56)">
      <path d="M0 -25.50 Q7.59 -17.85 5.12 -7.65 Q3.10 -1.40 0 0 Q-3.10 -1.40 -5.12 -7.65 Q-7.59 -17.85 0 -25.50 Z" fill="#D5CCB9" stroke="#B8935A" stroke-width=".5"/>
      <path d="M0 0 L0 -25.50" stroke="#9D7C4A" stroke-width=".4" fill="none"/>
    </g>
    <circle cx="32" cy="50" r="3.1" fill="#16543F"/>
    <circle cx="32" cy="50" r="4.2" stroke="#B8935A" stroke-width="1.5" fill="none"/>
  </g>

  <g transform="translate(470 0)">
    <text x="0" y="236" font-family="Instrument Serif, Georgia, serif" font-size="94"
          fill="#E8E1D4" letter-spacing="-2">Nimanto</text>
    <path d="M0 274 H236" stroke="#7C6134" stroke-width="1"/>
    <text x="0" y="336" font-family="Archivo, system-ui, sans-serif" font-size="35"
          font-weight="500" fill="#D5CCB9">Evidence first.</text>
    <text x="0" y="382" font-family="Archivo, system-ui, sans-serif" font-size="35"
          font-weight="500" fill="#D5CCB9">Applications second.</text>
    <text x="0" y="446" font-family="Archivo, system-ui, sans-serif" font-size="21"
          fill="#B3AA9C">A private, candidate-controlled job search and</text>
    <text x="0" y="476" font-family="Archivo, system-ui, sans-serif" font-size="21"
          fill="#B3AA9C">application workbench for H-1B professionals.</text>
    <text x="0" y="540" font-family="IBM Plex Mono, ui-monospace, monospace" font-size="15"
          fill="#8B8175" letter-spacing="3.2">LOCAL-FIRST  ·  EXPLAINABLE  ·  NO SILENT SEND</text>
  </g>
</svg>
